<svg xmlns="http://www.w3.org/2000/svg" width="512" height="512" viewBox="0 0 512 512" version="1.1">
	<path d="M 231.500 1.051 C 151.730 9.233, 81.392 52.891, 38.800 120.656 C -10.613 199.276, -12.798 301.727, 33.227 382 C 45.242 402.956, 56.840 418.155, 74.304 435.834 C 111.227 473.211, 157.871 498.132, 208.351 507.454 C 251.898 515.496, 294.537 512.685, 336 499.041 C 390.046 481.257, 437.010 445.613, 468.473 398.500 C 490.364 365.721, 503.660 331.111, 509.436 291.872 C 510.296 286.026, 511 279.190, 511 276.681 C 511 274.171, 511.450 271.840, 512 271.500 C 512.599 271.130, 513 264.470, 513 254.882 C 513 244.470, 512.651 239.098, 512 239.500 C 511.393 239.875, 510.998 238.426, 510.995 235.809 C 510.981 221.985, 503.602 187.746, 496.408 168.115 C 492.005 156.103, 479.714 130.933, 473.400 121 C 458.852 98.114, 436.718 73.117, 417 57.304 C 380.026 27.653, 339.289 9.798, 292 2.517 C 279.463 0.586, 244.330 -0.265, 231.500 1.051 M 239 17.583 C 237.075 17.807, 231.225 18.473, 226 19.061 C 186.360 23.529, 144.551 40.853, 109.500 67.335 C 99.944 74.555, 76.536 97.671, 68.762 107.564 C 54.166 126.140, 38.229 154.806, 30.993 175.500 C 26.365 188.736, 21.368 208.948, 19.362 222.550 C 16.928 239.047, 16.928 272.953, 19.362 289.450 C 23.048 314.441, 30.180 337.377, 41.453 360.500 C 60.571 399.711, 88.881 431.786, 126 456.287 C 138.046 464.239, 159.984 475.221, 174.357 480.496 C 200.813 490.204, 225.524 494.418, 256 494.418 C 280.266 494.418, 292.864 492.922, 314.549 487.466 C 398.960 466.229, 466.229 398.960, 487.466 314.549 C 492.919 292.876, 494.417 280.265, 494.422 256 C 494.425 240.635, 493.930 231.218, 492.687 223 C 486.330 180.952, 470.649 143.892, 444.665 109.500 C 437.445 99.944, 414.329 76.536, 404.436 68.762 C 371.715 43.051, 330.854 25.463, 289.936 19.476 C 279.854 18.001, 246.154 16.748, 239 17.583 M 239 34.614 C 210.378 37.230, 183.700 44.646, 158.500 56.989 C 93.514 88.820, 49.115 148.717, 36.927 221 C 33.910 238.894, 33.633 270.780, 36.349 287.500 C 40.459 312.807, 46.468 332.020, 56.989 353.500 C 89.439 419.749, 150.723 464.306, 225 475.651 C 240.625 478.038, 271.086 478.031, 287.394 475.637 C 333.746 468.833, 375.965 448.157, 409.547 415.816 C 428.940 397.139, 442.986 377.880, 454.992 353.500 C 470.653 321.700, 477.408 292.317, 477.408 256 C 477.408 219.391, 470.689 190.548, 454.461 157.500 C 422.630 92.675, 360.366 47.429, 288 36.533 C 277.670 34.978, 247.812 33.808, 239 34.614 M 236.500 52.130 C 166.035 58.861, 103.003 102.666, 71.934 166.500 C 26.898 259.029, 57.597 370.252, 143.899 427.229 C 224.379 480.362, 332.213 469.163, 400.530 400.575 C 455.808 345.078, 474.742 264.798, 450.010 190.780 C 420.025 101.042, 330.830 43.120, 236.500 52.130 M 243.275 78.539 C 216.184 85.836, 199.569 113.730, 206.489 140.297 C 216.455 178.557, 263.529 191.945, 291.589 164.500 C 320.089 136.624, 307.122 88.602, 268.369 78.508 C 261.241 76.651, 250.233 76.665, 243.275 78.539 M 245.863 95.507 C 216.510 104.923, 213.925 145.759, 241.852 158.852 C 246.573 161.065, 248.895 161.500, 256 161.500 C 266.208 161.500, 273.312 158.688, 280 152 C 286.688 145.312, 289.500 138.208, 289.500 128 C 289.500 117.792, 286.688 110.688, 280 104 C 271.575 95.575, 256.974 91.943, 245.863 95.507 M 124.493 190.351 C 115.129 194.712, 110 202.907, 110 213.508 C 110 225.372, 118.038 235.595, 129.227 237.961 C 132.127 238.575, 151.041 240.559, 171.258 242.372 C 217.022 246.474, 213 244.292, 213 265.018 C 213 276.818, 212.631 280.744, 211.113 285.093 C 210.075 288.067, 200.108 313.675, 188.964 342 C 167.612 396.270, 166.559 399.781, 169.008 408.527 C 170.601 414.220, 176.694 421.189, 182.558 424.028 C 192.266 428.728, 205.920 425.773, 212.741 417.498 C 214.626 415.211, 222.809 396.493, 235.489 365.463 C 246.382 338.808, 255.565 317.003, 255.897 317.007 C 256.229 317.011, 265.469 338.832, 276.431 365.499 C 288.520 394.905, 297.471 415.329, 299.180 417.402 C 300.729 419.282, 304.336 421.985, 307.195 423.410 C 324.965 432.265, 345.545 418.247, 343.753 398.508 C 343.447 395.134, 336.689 376.700, 323.036 342 C 311.892 313.675, 301.925 288.067, 300.887 285.093 C 299.369 280.744, 299 276.818, 299 265.018 C 299 244.320, 294.964 246.509, 340.723 242.395 C 360.951 240.576, 379.873 238.584, 382.773 237.967 C 393.926 235.596, 402.020 225.341, 401.978 213.636 C 401.927 199.276, 391.139 188.036, 377.383 188.010 C 374.569 188.004, 352.294 189.800, 327.883 192 C 265.953 197.581, 245.929 197.581, 184.124 192 C 159.760 189.800, 137.502 188.004, 134.663 188.010 C 131.371 188.016, 127.685 188.865, 124.493 190.351 M 129.455 207.455 C 124.841 212.069, 126.986 220.045, 133.225 221.468 C 134.476 221.754, 152.691 223.526, 173.702 225.405 C 210.300 228.679, 212.116 228.938, 216.956 231.573 C 222.316 234.490, 226.176 238.782, 228.551 244.468 C 230.694 249.596, 230.580 279.680, 228.390 287.068 C 227.505 290.056, 217.380 316.450, 205.890 345.723 C 194.401 374.995, 185 400.046, 185 401.391 C 185 405.220, 186.008 406.953, 189.194 408.600 C 192.599 410.361, 197.054 409.738, 199.261 407.193 C 200.069 406.262, 208.946 385.475, 218.988 361 C 242.191 304.449, 242.012 304.840, 246.046 301.967 C 252.914 297.077, 264.414 298.632, 269.216 305.101 C 270.196 306.421, 280.054 329.550, 291.124 356.500 C 302.194 383.450, 312.085 406.377, 313.104 407.450 C 317.455 412.031, 327 408.108, 327 401.738 C 327 400.135, 317.592 374.871, 306.093 345.595 C 294.594 316.319, 284.469 289.952, 283.593 287.001 C 281.419 279.682, 281.317 249.570, 283.449 244.468 C 285.933 238.522, 289.993 234.150, 295.561 231.426 C 300.534 228.993, 303.653 228.557, 338.711 225.394 C 359.495 223.518, 377.524 221.751, 378.775 221.466 C 388.108 219.345, 386.362 205, 376.771 205 C 374.945 205, 353.729 206.800, 329.625 209 C 290.254 212.593, 282.778 213, 256.093 213 C 229.438 213, 221.877 212.590, 182.444 209.003 C 158.275 206.805, 137.017 205.005, 135.205 205.003 C 133.036 205.001, 131.070 205.839, 129.455 207.455 M 0.407 256 C 0.407 265.075, 0.559 268.788, 0.744 264.250 C 0.929 259.712, 0.929 252.287, 0.744 247.750 C 0.559 243.213, 0.407 246.925, 0.407 256" stroke="none" fill="#000000" fill-rule="evenodd"/>
</svg>