<svg xmlns="http://www.w3.org/2000/svg" width="512" height="512" viewBox="0 0 512 512" version="1.1">
	<path d="M 298.455 50.455 L 296 52.909 296 134.795 L 296 216.682 290.513 217.910 C 287.495 218.585, 277.188 221.760, 267.607 224.964 L 250.187 230.791 238.594 219.053 C 232.217 212.597, 227 206.828, 227 206.234 C 227 205.640, 225.847 203.783, 224.438 202.109 L 221.876 199.064 228.237 199.658 C 244.804 201.205, 260.840 192.196, 268.226 177.193 C 271.297 170.954, 271.500 169.889, 271.500 160 C 271.500 150.097, 271.300 149.052, 268.203 142.761 C 264.015 134.254, 257.746 127.985, 249.239 123.797 C 242.950 120.701, 241.901 120.500, 232.021 120.500 C 222.718 120.500, 220.843 120.808, 215.825 123.160 C 192.321 134.178, 184.838 164.055, 200.453 184.527 L 202.827 187.639 173.663 181.758 C 142.019 175.377, 137.184 175.056, 128.764 178.780 C 120.644 182.372, 116.618 187.246, 100.486 213.022 C 81.085 244.020, 80.530 245.202, 80.529 255.500 C 80.528 264.336, 81.755 267.601, 87.077 272.923 C 92.190 278.037, 95.737 279.444, 103.578 279.474 C 109.719 279.497, 111.309 279.101, 115.578 276.489 C 119.783 273.916, 122.405 270.645, 133.570 254.049 C 140.759 243.363, 147.081 234.473, 147.621 234.293 C 148.160 234.113, 150.230 234.536, 152.221 235.233 L 155.840 236.500 139.951 261.901 C 125.028 285.755, 122.148 291.382, 120.452 300 C 119.843 303.097, 117.301 306.625, 100.371 327.884 C 100.202 328.096, 84.123 329.751, 64.640 331.563 C 32.531 334.549, 28.760 335.090, 24.357 337.339 C 18.548 340.308, 14.043 344.884, 10.910 351 C 7.669 357.327, 7.678 368.532, 10.930 375.261 C 14.191 382.010, 21.895 388.623, 28.854 390.646 C 36.205 392.783, 47.654 392.190, 88.853 387.539 C 106.098 385.593, 120.919 384, 121.790 384 C 122.661 384, 131.277 376.166, 140.937 366.590 L 158.500 349.181 187.398 354.040 C 203.292 356.713, 216.834 359.106, 217.491 359.358 C 218.147 359.610, 222.903 369.645, 228.059 381.658 C 236.186 400.594, 238.054 404.122, 242.094 408.175 C 247.084 413.180, 253.948 416, 261.144 416 C 267.212 416, 275.115 412.485, 279.674 407.760 C 286.505 400.678, 287.512 397.913, 287.417 386.500 C 287.372 381, 286.778 374.475, 286.097 372 C 284.085 364.688, 267.124 325.530, 263.784 320.488 C 260.038 314.833, 251.920 308.537, 244.965 305.895 C 242.125 304.816, 230.284 302.559, 218.651 300.881 C 207.018 299.202, 197.360 297.689, 197.188 297.519 C 196.919 297.252, 206.107 280.347, 213.643 267.244 L 216.092 262.988 222.882 268.474 C 226.617 271.492, 232.334 275.197, 235.586 276.707 C 240.671 279.068, 242.762 279.451, 250.500 279.433 C 259.156 279.414, 260.176 279.157, 277.212 272.707 C 286.954 269.018, 295.167 266, 295.462 266 C 295.758 266, 296 298.645, 296 338.545 L 296 411.091 298.455 413.545 L 300.909 416 338.455 416 L 376 416 376 437.545 C 376 459.088, 376 459.091, 378.455 461.545 C 379.805 462.895, 381.993 464, 383.317 464 C 386.950 464, 500.194 415.307, 502.250 412.861 C 503.902 410.895, 504 400.798, 504 231.844 L 504 52.909 501.545 50.455 L 499.091 48 400 48 L 300.909 48 298.455 50.455 M 312 140.487 L 312 216.973 315.250 218.334 C 317.038 219.082, 320.158 221.531, 322.183 223.776 C 328.513 230.791, 329.638 239.320, 325.365 247.895 C 322.815 253.012, 316.336 259, 313.350 259 C 312.229 259, 312 270.982, 312 329.500 L 312 400 344 400 L 376 400 376 250.611 C 376 109.776, 376.100 101.105, 377.750 99.190 C 378.712 98.072, 396.600 89.869, 417.500 80.960 C 438.400 72.052, 455.687 64.591, 455.917 64.381 C 456.146 64.172, 423.858 64, 384.167 64 L 312 64 312 140.487 M 439.750 88.749 L 392 109.297 392 276.611 L 392 443.924 399.750 440.606 C 404.012 438.781, 425.613 429.523, 447.750 420.034 L 488 402.780 488 235.390 C 488 143.325, 487.887 68.045, 487.750 68.100 C 487.613 68.155, 466.012 77.447, 439.750 88.749 M 80 128 L 80 136 132 136 L 184 136 184 128 L 184 120 132 120 L 80 120 80 128 M 224 137.307 C 219.092 138.854, 210.721 147.522, 209.216 152.616 C 206.446 161.992, 208.399 169.467, 215.466 176.534 C 222.533 183.601, 230.008 185.554, 239.384 182.784 C 244.877 181.161, 253.161 172.877, 254.784 167.384 C 257.554 158.008, 255.601 150.533, 248.534 143.466 C 241.497 136.430, 233.307 134.374, 224 137.307 M 8 168 L 8 176 48 176 L 88 176 88 168 L 88 160 48 160 L 8 160 8 168 M 133.971 194.250 C 129.875 196.320, 128.257 198.520, 113.757 221.745 C 104.891 235.946, 97.471 248.951, 96.796 251.472 C 95.319 256.996, 96.458 260.838, 100.195 262.936 C 105.596 265.967, 107.281 264.317, 123.602 240 C 134.734 223.414, 139.411 217.248, 141.397 216.541 C 143.581 215.764, 146.828 216.487, 158.536 220.358 C 173.582 225.334, 176 226.932, 176 231.902 C 176 233.356, 168.394 246.546, 157.377 264.197 C 147.135 280.607, 138.090 295.939, 137.278 298.267 C 133.498 309.099, 139.078 323.445, 149.430 329.512 C 153.086 331.655, 159.668 333.049, 190.146 338.137 C 210.141 341.475, 227.400 344.780, 228.500 345.481 C 229.732 346.267, 234.301 355.675, 240.397 369.976 C 245.840 382.746, 251.379 394.486, 252.707 396.064 C 257.539 401.806, 267.076 400.622, 270.580 393.844 C 271.885 391.321, 272.114 389.135, 271.624 383.861 C 270.889 375.961, 268.589 369.262, 259.168 347.595 C 247.515 320.793, 248.487 321.412, 208.945 315.644 C 182.353 311.765, 179.560 311.175, 177.864 309.080 C 176.839 307.814, 176 305.673, 176 304.322 C 176 302.970, 184.143 287.223, 194.096 269.328 C 214.708 232.266, 215.948 229.761, 215.978 225.116 C 216.035 216.377, 210.241 207.383, 202.739 204.565 C 197.979 202.777, 145.037 192, 141.013 192 C 139.589 192, 136.420 193.012, 133.971 194.250 M 24 240 L 24 248 44 248 L 64 248 64 240 L 64 232 44 232 L 24 232 24 240 M 295.500 233.056 C 293.300 233.516, 282.062 237.067, 270.527 240.946 C 258.992 244.826, 248.485 248, 247.180 248 C 245.609 248, 242.469 245.745, 237.901 241.335 C 234.104 237.669, 230.881 234.856, 230.739 235.085 C 230.597 235.313, 229.037 238.517, 227.272 242.205 L 224.063 248.910 232.108 255.346 C 240.804 262.304, 246.485 264.601, 252.876 263.743 C 257.881 263.072, 307.955 244.324, 310.250 242.262 C 312.579 240.170, 312.467 236.467, 310 234 C 307.837 231.837, 302.872 231.514, 295.500 233.056 M 8 296 L 8 304 44 304 L 80 304 80 296 L 80 288 44 288 L 8 288 8 296 M 116.500 333.105 C 112.650 338.067, 108.820 342.506, 107.989 342.970 C 107.158 343.434, 90.283 345.257, 70.489 347.020 C 31.053 350.533, 28.827 351.033, 25.752 357.069 C 22.343 363.759, 24.652 371.217, 31.178 374.592 C 35.395 376.773, 47.497 376.135, 87.295 371.635 L 116.091 368.379 128.451 356.049 L 140.811 343.719 134.859 338.209 C 131.586 335.179, 127.761 330.742, 126.359 328.350 C 124.957 325.957, 123.740 324.019, 123.655 324.042 C 123.570 324.064, 120.350 328.143, 116.500 333.105" stroke="none" fill="#000000" fill-rule="evenodd"/>
</svg>