<svg xmlns="http://www.w3.org/2000/svg" width="512" height="512" viewBox="0 0 512 512" version="1.1">
	<path d="M 364.813 35.470 C 356.590 37.734, 350.663 41.217, 344.440 47.440 C 326.973 64.907, 326.507 91.199, 343.338 109.665 L 348.176 114.973 311.755 224.236 L 275.334 333.500 247.917 333.765 L 220.500 334.031 194.583 282.167 L 168.667 230.303 171.222 226.902 C 178.944 216.619, 182.230 203.801, 180.192 191.913 C 178.473 181.888, 174.687 174.543, 167.572 167.428 C 149.606 149.463, 122.436 149.468, 104.428 167.440 C 93.957 177.891, 89.374 191.894, 91.799 206.034 C 93.050 213.330, 97.120 222.584, 101.285 227.601 L 103.691 230.500 78.908 282 L 54.125 333.500 27.063 333.766 L 0 334.032 0 349.016 L 0 364 19.500 364 C 30.225 364, 39 364.186, 39 364.414 C 39 364.641, 30.484 382.538, 20.076 404.185 C 9.668 425.832, 1.006 444.138, 0.826 444.865 C 0.620 445.702, 5.379 448.520, 13.793 452.544 L 27.086 458.900 35.838 440.700 C 40.652 430.690, 63.909 382.337, 87.521 333.250 L 130.453 244 135.978 244 L 141.504 244 199.833 360.619 C 231.913 424.760, 258.519 476.848, 258.956 476.369 C 259.394 475.891, 285.794 397.313, 317.624 301.750 C 349.453 206.188, 375.722 128.009, 375.998 128.020 C 376.274 128.032, 396.741 190.469, 421.480 266.770 C 446.219 343.072, 470.294 417.287, 474.980 431.694 L 483.500 457.889 497.500 453.326 C 505.200 450.816, 511.596 448.683, 511.712 448.586 C 511.829 448.488, 505.874 429.754, 498.479 406.954 C 491.084 384.154, 485.026 365.175, 485.017 364.778 C 485.007 364.381, 491.188 363.931, 498.750 363.778 L 512.500 363.500 512.775 348.500 L 513.051 333.500 493.845 333.500 L 474.639 333.500 439.176 224.307 L 403.712 115.114 408.448 109.847 C 421.950 94.829, 424.535 75.326, 415.341 57.830 C 405.836 39.741, 384.149 30.144, 364.813 35.470 M 369.218 65.663 C 358.832 70.782, 358.430 85.652, 368.518 91.564 C 373.597 94.540, 377.062 94.632, 382.624 91.940 C 385.714 90.444, 387.444 88.714, 388.940 85.624 C 391.586 80.158, 391.541 76.735, 388.758 71.783 C 384.854 64.838, 376.318 62.164, 369.218 65.663 M 128.761 186.062 C 124.515 188.304, 121 194.198, 121 199.074 C 121 206.185, 128.853 214, 136 214 C 140.352 214, 146.515 210.208, 148.816 206.114 C 151.535 201.276, 151.586 197.068, 148.987 191.974 C 145.297 184.741, 136.264 182.101, 128.761 186.062 M 0.402 349 C 0.402 357.525, 0.556 361.012, 0.743 356.750 C 0.931 352.488, 0.931 345.512, 0.743 341.250 C 0.556 336.988, 0.402 340.475, 0.402 349 M 106 349 L 106 364 136 364 L 166 364 166 349 L 166 334 136 334 L 106 334 106 349 M 331 349 L 331 364 376 364 L 421 364 421 349 L 421 334 376 334 L 331 334 331 349 M 236 364.511 C 236 364.792, 239.891 372.780, 244.648 382.261 L 253.295 399.500 258.658 383.500 C 261.607 374.700, 264.271 366.712, 264.577 365.750 C 265.091 364.138, 263.987 364, 250.567 364 C 242.555 364, 236 364.230, 236 364.511" stroke="none" fill="#000000" fill-rule="evenodd"/>
</svg>