<svg xmlns="http://www.w3.org/2000/svg" width="512" height="512" viewBox="0 0 512 512" version="1.1">
	<path d="M 233 1.044 C 175.595 6.212, 120.746 31.513, 78.123 72.486 C 51.794 97.795, 28.374 133.630, 15.623 168.115 C 5.829 194.606, 0.067 227.154, 0.067 256 C 0.067 322.080, 25.817 385.329, 72.486 433.877 C 97.795 460.206, 133.630 483.626, 168.115 496.377 C 187.209 503.436, 212.600 509.057, 234.198 511.004 C 260.769 513.399, 267.167 511.356, 267.167 500.472 C 267.167 495.424, 264.964 491.614, 261.201 490.154 C 259.716 489.578, 253.100 488.823, 246.500 488.476 C 188.225 485.411, 136.120 462.962, 94.622 423.041 C 57.417 387.250, 33.506 340.423, 25.414 287.500 C 23.111 272.437, 23.111 239.563, 25.414 224.500 C 30.825 189.115, 43.163 156.577, 61.816 128.500 C 99.353 72, 156.450 35.819, 224.500 25.414 C 239.563 23.111, 272.437 23.111, 287.500 25.414 C 355.550 35.819, 412.647 72, 450.184 128.500 C 468.842 156.585, 481.199 189.179, 486.580 224.500 C 488.847 239.386, 488.836 270.262, 486.557 286.500 C 479.397 337.527, 458.542 380.471, 423 417.377 C 392.226 449.332, 354.828 470.741, 311 481.492 C 297.120 484.897, 295.106 485.778, 292.885 489.420 C 289.384 495.162, 291.377 504.052, 296.613 506.043 C 302.817 508.402, 316.454 505.707, 340.420 497.387 C 432.486 465.427, 500.623 379.718, 510.059 284 C 510.683 277.675, 511.600 271.719, 512.097 270.764 C 513.245 268.556, 513.292 239.701, 512.146 240.410 C 511.676 240.700, 511.024 237.014, 510.697 232.219 C 506.859 175.940, 477.077 114.014, 433.877 72.486 C 408.206 47.809, 376.147 27.552, 343.885 15.623 C 310.216 3.175, 269.215 -2.216, 233 1.044 M 227 48.592 C 191.641 53.716, 158.304 67.824, 128.659 90.210 C 118.177 98.125, 98.125 118.177, 90.210 128.659 C 67.529 158.695, 53.589 191.905, 48.513 228 C 46.597 241.630, 46.597 270.370, 48.513 284 C 53.589 320.095, 67.529 353.305, 90.210 383.341 C 98.125 393.823, 118.177 413.875, 128.659 421.790 C 158.695 444.471, 191.905 458.411, 228 463.487 C 241.630 465.403, 270.370 465.403, 284 463.487 C 320.095 458.411, 353.305 444.471, 383.341 421.790 C 393.823 413.875, 413.875 393.823, 421.790 383.341 C 444.471 353.305, 458.411 320.095, 463.487 284 C 465.379 270.546, 465.412 243.487, 463.553 229.436 C 458.706 192.786, 445.829 161.066, 423.594 131 C 415.136 119.564, 393.490 97.671, 382.649 89.589 C 361.184 73.586, 335.890 61.103, 310.567 54.014 C 303.899 52.147, 302.034 51.973, 298.871 52.921 C 291.828 55.031, 288.993 62.218, 292.517 69.033 C 294.294 72.469, 297.137 74.040, 305.938 76.448 C 349.240 88.294, 389.755 118.858, 414.092 158.039 C 428.378 181.038, 438.746 211.122, 441.528 237.650 L 442.173 243.800 428.658 244.150 C 416.830 244.456, 414.791 244.761, 412.322 246.596 C 406.211 251.134, 406.211 260.867, 412.322 265.404 C 414.774 267.225, 416.843 267.546, 428.093 267.851 L 441.042 268.202 440.445 273.351 C 437.450 299.157, 431.778 318.516, 420.808 340.370 C 404.007 373.840, 373.807 404.024, 340.283 420.851 C 318.521 431.775, 299.121 437.454, 273.351 440.445 L 268.202 441.042 267.851 428.093 C 267.546 416.843, 267.225 414.774, 265.404 412.322 C 260.866 406.211, 251.134 406.211, 246.596 412.322 C 244.775 414.774, 244.454 416.843, 244.149 428.093 L 243.798 441.042 238.649 440.445 C 212.843 437.450, 193.484 431.778, 171.630 420.808 C 138.160 404.007, 107.976 373.807, 91.149 340.283 C 80.225 318.521, 74.546 299.121, 71.555 273.351 L 70.958 268.202 83.907 267.851 C 95.157 267.546, 97.226 267.225, 99.678 265.404 C 105.789 260.867, 105.789 251.134, 99.678 246.596 C 97.209 244.762, 95.170 244.456, 83.359 244.150 L 69.862 243.800 70.520 237.150 C 74.609 195.781, 94.200 155.019, 124.609 124.609 C 155.019 94.200, 195.781 74.609, 237.150 70.520 L 243.800 69.862 244.150 83.359 C 244.456 95.170, 244.762 97.209, 246.596 99.678 C 251.133 105.789, 260.865 105.789, 265.404 99.680 C 267.310 97.114, 267.530 95.265, 267.835 79.242 C 268.248 57.561, 267.727 53.573, 263.991 49.837 C 261.167 47.014, 261.095 47.001, 248.827 47.107 C 242.047 47.167, 232.225 47.834, 227 48.592 M 168.420 106.885 C 159.908 112.076, 162.607 125.710, 172.515 127.569 C 176.806 128.374, 182.616 125.643, 184.544 121.915 C 189.952 111.458, 178.471 100.756, 168.420 106.885 M 330.844 107.255 C 323.749 113.252, 324.711 122.737, 332.803 126.577 C 345.033 132.380, 355.017 114.845, 343.964 106.974 C 340.161 104.266, 334.230 104.393, 330.844 107.255 M 252.094 152.331 C 250.220 152.974, 247.745 154.770, 246.594 156.321 C 244.586 159.026, 244.488 160.474, 244.200 191.401 L 243.899 223.660 239.981 225.388 C 234.294 227.897, 227.262 235.200, 224.199 241.780 C 221.952 246.605, 221.539 248.848, 221.562 256.112 C 221.586 263.757, 221.950 265.456, 224.804 271.254 C 232.214 286.306, 248.047 293.589, 264.426 289.482 L 271.217 287.779 307.358 323.761 C 334.113 350.398, 344.247 359.877, 346.374 360.257 C 352.962 361.433, 359.537 356.967, 360.088 350.941 C 360.692 344.331, 360.586 344.203, 323.889 307.416 L 287.779 271.217 289.498 264.361 C 291.583 256.046, 290.965 248.787, 287.532 241.289 C 284.721 235.148, 277.578 227.841, 271.968 225.366 L 268 223.615 267.944 193.058 C 267.905 172.087, 267.513 161.431, 266.694 159.094 C 264.610 153.146, 258.271 150.210, 252.094 152.331 M 110.763 164.565 C 103.228 168.653, 103.350 180.544, 110.967 184.483 C 116.942 187.573, 123.594 185.482, 126.365 179.643 C 128.402 175.351, 128.412 173.669, 126.423 169.478 C 123.747 163.839, 116.368 161.524, 110.763 164.565 M 390.321 164.613 C 387.198 166.153, 384 171.156, 384 174.500 C 384 177.694, 387.267 183.087, 390.085 184.544 C 397.752 188.509, 407 183.018, 407 174.500 C 407 168.615, 401.488 162.966, 395.800 163.023 C 394.535 163.035, 392.069 163.751, 390.321 164.613 M 0.402 256 C 0.402 264.525, 0.556 268.012, 0.743 263.750 C 0.931 259.488, 0.931 252.512, 0.743 248.250 C 0.556 243.988, 0.402 247.475, 0.402 256 M 252.094 245.331 C 245.156 247.712, 242.323 256.918, 246.709 262.829 C 250.641 268.128, 260.131 268.827, 264.380 264.132 C 272.445 255.221, 263.437 241.436, 252.094 245.331 M 110.763 327.565 C 109.257 328.382, 107.344 330.367, 106.513 331.976 C 100.476 343.650, 115.106 354.622, 124.364 345.364 C 133.567 336.161, 122.240 321.338, 110.763 327.565 M 389.756 327.755 C 388.246 328.691, 386.292 330.972, 385.413 332.825 C 379.530 345.222, 397.974 355.289, 405.115 343.580 C 411.345 333.362, 399.837 321.504, 389.756 327.755 M 169.321 385.613 C 166.034 387.234, 163 392.196, 163 395.951 C 163 399.384, 165.790 403.840, 168.967 405.483 C 179.308 410.831, 190.146 399.827, 184.294 389.920 C 182.525 386.925, 177.563 383.983, 174.349 384.023 C 173.332 384.035, 171.069 384.751, 169.321 385.613 M 332.321 385.613 C 329.034 387.234, 326 392.196, 326 395.951 C 326 401.722, 331.493 407, 337.500 407 C 343.507 407, 349 401.722, 349 395.951 C 349 392.091, 345.947 387.203, 342.522 385.577 C 338.385 383.615, 336.360 383.622, 332.321 385.613" stroke="none" fill="#000000" fill-rule="evenodd"/>
</svg>