<svg xmlns="http://www.w3.org/2000/svg" width="512" height="512" viewBox="0 0 512 512" version="1.1">
	<path d="M 197.500 21.581 C 196.400 21.822, 193.025 22.501, 190 23.089 C 186.975 23.677, 180.300 26.176, 175.166 28.643 C 153.704 38.952, 139 61.847, 139 84.953 C 139 99.589, 145.321 116.579, 154.608 126.909 L 158.894 131.676 153.197 134.005 C 136.015 141.031, 122.262 153.986, 114.291 170.653 C 108.342 183.093, 107.762 186.390, 107.103 211.500 L 106.500 234.500 75.500 235 C 48.685 235.433, 43.970 235.739, 40.577 237.271 C 33.611 240.416, 28.316 245.613, 24.800 252.755 L 21.500 259.458 21.500 362.479 L 21.500 465.500 24.392 471.762 C 27.773 479.083, 32.965 484.154, 40.880 487.865 L 46.500 490.500 253.430 490.762 C 433.787 490.990, 461.105 490.833, 466.158 489.538 C 476.580 486.868, 483.023 481.377, 487.910 471 L 490.500 465.500 490.500 362.500 L 490.500 259.500 487.819 253.780 C 484.307 246.288, 477.438 239.682, 470.433 237.061 C 465.586 235.247, 462.663 235, 446.065 235 L 427.205 235 426.064 228.445 C 423.340 212.801, 412.765 199.813, 398.763 194.915 C 395.939 193.927, 394.760 192.804, 393.940 190.319 C 390.697 180.490, 377.275 180.577, 374.017 190.448 C 373.175 193, 372.156 194.027, 369.993 194.501 C 365.623 195.461, 355.907 202.123, 351.688 207.051 C 346.711 212.865, 343.383 220.138, 341.961 228.304 L 340.795 235 320.028 235 L 299.261 235 298.724 213.250 C 298.144 189.734, 297.178 183.926, 291.889 172.154 C 283.754 154.047, 267.243 138.937, 248.710 132.640 C 247.166 132.116, 247.634 131.103, 252.119 125.266 C 268.227 104.304, 270.720 80.424, 259.245 57 C 251.882 41.968, 234.268 27.738, 217.912 23.606 C 211.626 22.018, 200.529 20.917, 197.500 21.581 M 189.287 44.810 C 172.867 50.660, 161.724 64.979, 160.291 82.070 C 158.156 107.532, 180.468 129.844, 205.930 127.709 C 219.214 126.595, 231.078 119.589, 238.115 108.701 C 243.617 100.187, 245.324 93.664, 244.818 83.081 C 244.059 67.198, 235.605 54.374, 221.203 47.256 C 214.393 43.890, 212.865 43.533, 204.112 43.257 C 196.698 43.023, 193.308 43.378, 189.287 44.810 M 172.777 150.032 C 157.906 152.343, 143.102 162.463, 135.404 175.580 C 129.517 185.610, 128.706 189.875, 128.239 213.250 L 127.804 235 202.402 235 L 277 235 277 215.210 C 277 200.910, 276.587 193.834, 275.511 189.703 C 270.898 171.994, 257.286 157.444, 240.072 151.825 C 234.102 149.876, 230.980 149.655, 206 149.411 C 190.875 149.263, 175.925 149.543, 172.777 150.032 M 378.994 213.883 C 369.567 216.943, 363 224.574, 363 232.468 L 363 235 384 235 L 405 235 405 232.468 C 405 229.078, 402.414 223.074, 399.702 220.166 C 394.951 215.073, 384.808 211.995, 378.994 213.883 M 47.826 257.712 C 46.355 258.625, 44.668 260.434, 44.076 261.733 C 43.331 263.368, 43 294.714, 43 363.624 L 43 463.154 45.923 466.077 L 48.846 469 256 469 L 463.154 469 466.077 466.077 L 469 463.154 469 363.624 C 469 294.190, 468.672 263.374, 467.915 261.712 C 467.318 260.402, 465.561 258.581, 464.010 257.665 C 461.405 256.126, 445.667 256.002, 255.846 256.027 C 66.344 256.051, 50.294 256.181, 47.826 257.712 M 109.923 301.923 C 105.166 306.680, 106.204 314.917, 111.990 318.335 C 114.584 319.867, 126.064 320, 256 320 C 385.936 320, 397.416 319.867, 400.010 318.335 C 405.796 314.917, 406.834 306.680, 402.077 301.923 L 399.154 299 256 299 L 112.846 299 109.923 301.923" stroke="none" fill="#000000" fill-rule="evenodd"/>
</svg>