<svg xmlns="http://www.w3.org/2000/svg" width="512" height="512" viewBox="0 0 512 512" version="1.1">
	<path d="M 231.500 1.051 C 171.777 7.177, 117.430 32.904, 75.183 75.050 C -17.464 167.475, -25.400 314.529, 56.752 416.579 C 98.271 468.153, 156.161 500.457, 224.500 510.185 C 236.379 511.876, 275.665 511.848, 288 510.141 C 378.575 497.602, 452.705 442.370, 490.185 359.500 C 500.819 335.989, 511 295.479, 511 276.681 C 511 274.171, 511.450 271.840, 512 271.500 C 512.599 271.130, 513 264.470, 513 254.882 C 513 246.082, 512.616 239.119, 512.147 239.409 C 511.679 239.699, 511.015 235.992, 510.673 231.172 C 508.064 194.413, 492.447 149.730, 470.595 116.500 C 429.452 53.934, 365.842 13.410, 291.500 2.402 C 279.271 0.591, 243.776 -0.208, 231.500 1.051 M 238.500 40.615 C 199.326 44.726, 166.083 56.381, 135.913 76.583 C 85.203 110.538, 51.878 163.185, 42.282 224.500 C 39.911 239.649, 39.911 272.351, 42.282 287.500 C 57.149 382.498, 128.851 454.345, 224.099 469.682 C 238.756 472.043, 272.598 472.065, 287.500 469.725 C 324.796 463.866, 358.943 449.354, 387.651 427.160 C 431.864 392.980, 460.583 344.228, 469.689 287.901 C 472.018 273.496, 472.018 238.504, 469.689 224.099 C 454.338 129.135, 382.533 57.153, 288.500 42.463 C 278.817 40.951, 246.635 39.761, 238.500 40.615 M 172.264 165.558 C 163.980 170.523, 160.331 182.792, 164.609 191.300 C 165.494 193.060, 179.997 208.338, 196.838 225.250 L 227.457 256 196.838 286.750 C 179.997 303.663, 165.494 318.940, 164.609 320.700 C 160.634 328.607, 163.886 340.911, 171.238 345.776 C 176.434 349.214, 186.013 350.051, 191.094 347.509 C 192.967 346.572, 208.334 332.018, 225.242 315.167 L 255.984 284.528 286.742 315.155 C 303.659 331.999, 319.033 346.554, 320.906 347.497 C 325.979 350.053, 335.554 349.222, 340.762 345.776 C 348.114 340.911, 351.366 328.607, 347.391 320.700 C 346.506 318.940, 332.003 303.663, 315.162 286.750 L 284.543 256 315.162 225.250 C 332.003 208.338, 346.506 193.060, 347.391 191.300 C 351.366 183.393, 348.114 171.089, 340.762 166.224 C 335.554 162.778, 325.979 161.947, 320.906 164.503 C 319.033 165.446, 303.659 180.001, 286.742 196.845 L 255.984 227.472 225.242 196.833 C 208.334 179.982, 193.060 165.476, 191.300 164.597 C 186.223 162.064, 177.346 162.512, 172.264 165.558 M 0.407 256 C 0.407 265.075, 0.559 268.788, 0.744 264.250 C 0.929 259.712, 0.929 252.287, 0.744 247.750 C 0.559 243.213, 0.407 246.925, 0.407 256" stroke="none" fill="#000000" fill-rule="evenodd"/>
</svg>