<svg xmlns="http://www.w3.org/2000/svg" width="512" height="512" viewBox="0 0 512 512" version="1.1">
	<path d="M 250.073 43.635 C 248.067 46.184, 248 47.384, 248 80.500 C 248 113.616, 248.067 114.816, 250.073 117.365 C 253 121.087, 259 121.087, 261.927 117.365 C 263.933 114.816, 264 113.616, 264 80.500 C 264 47.384, 263.933 46.184, 261.927 43.635 C 260.329 41.602, 258.973 41, 256 41 C 253.027 41, 251.671 41.602, 250.073 43.635 M 86.073 111.635 C 81.813 117.050, 82.188 117.589, 108.750 144.242 C 122.363 157.900, 134.464 169.320, 135.642 169.619 C 138.195 170.267, 143.503 167.737, 144.379 165.455 C 146.386 160.226, 145.599 159.193, 120.277 133.796 C 96.863 110.314, 95.357 109, 91.849 109 C 89.039 109, 87.645 109.636, 86.073 111.635 M 391.723 133.796 C 366.401 159.193, 365.614 160.226, 367.621 165.455 C 368.497 167.737, 373.805 170.267, 376.358 169.619 C 377.536 169.320, 389.637 157.900, 403.250 144.242 C 429.812 117.589, 430.187 117.050, 425.927 111.635 C 424.355 109.636, 422.961 109, 420.151 109 C 416.643 109, 415.137 110.314, 391.723 133.796 M 240.174 147.039 C 188.817 153.504, 144.827 188.591, 128.013 236.500 C 120.533 257.814, 120.686 255.947, 120.265 331.133 L 119.886 398.766 110.591 399.173 C 102.627 399.521, 100.363 400.039, 94.776 402.790 C 87.020 406.608, 80.853 412.929, 77.182 420.825 C 74.987 425.546, 74.541 427.929, 74.533 435 C 74.523 442.451, 74.904 444.302, 77.619 450 C 81.333 457.793, 87.511 464.120, 94.993 467.795 L 100.500 470.500 256 470.500 L 411.500 470.500 417.164 467.719 C 431.945 460.460, 440.200 444.089, 436.998 428.383 C 434.594 416.595, 427.180 407.275, 416.175 402.208 C 411.733 400.163, 408.503 399.505, 401.307 399.181 L 392.114 398.766 391.735 331.133 C 391.312 255.574, 391.481 257.574, 383.687 235.798 C 367.706 191.148, 328.150 157.539, 281 148.549 C 270.558 146.558, 250.026 145.799, 240.174 147.039 M 240.500 163.072 C 195.536 169.235, 156.716 201.055, 142.501 243.401 C 136.541 261.158, 136.701 258.886, 136.282 331.750 L 135.896 399 256.006 399 L 376.115 399 375.717 331.750 C 375.371 273.433, 375.098 263.593, 373.659 257.676 C 361.816 208.974, 326.742 174.323, 279.334 164.491 C 269.734 162.500, 249.947 161.777, 240.500 163.072 M 250.176 186.503 C 247.391 190.044, 247.417 193.210, 250.257 196.512 C 252.289 198.874, 253.512 199.224, 262.507 200.014 C 290.405 202.462, 313.957 217.574, 327.682 241.833 C 332.829 250.930, 336.868 264.311, 337.610 274.726 C 337.954 279.552, 338.881 284.533, 339.670 285.795 C 341.679 289.008, 345.692 290.370, 349.050 288.979 C 353.442 287.160, 354.383 284.172, 353.678 274.282 C 351.171 239.121, 329.142 207.486, 296.741 192.516 C 285.387 187.270, 275.842 184.914, 263.426 184.292 L 252.352 183.737 250.176 186.503 M 18.073 275.635 C 15.347 279.100, 15.453 282.253, 18.413 285.694 L 20.827 288.500 56 288.500 L 91.173 288.500 93.587 285.694 C 96.547 282.253, 96.653 279.100, 93.927 275.635 L 91.855 273 56 273 L 20.145 273 18.073 275.635 M 418.073 275.635 C 415.347 279.100, 415.453 282.253, 418.413 285.694 L 420.827 288.500 456 288.500 L 491.173 288.500 493.587 285.694 C 496.547 282.253, 496.653 279.100, 493.927 275.635 L 491.855 273 456 273 L 420.145 273 418.073 275.635" stroke="none" fill="#000000" fill-rule="evenodd"/>
</svg>