<svg xmlns="http://www.w3.org/2000/svg" width="512" height="512" viewBox="0 0 512 512" version="1.1">
	<path d="M 233.757 1.464 C 208.474 5.093, 183.910 14.477, 163.012 28.488 C 94.689 74.298, 76.580 154.604, 114.979 241.500 C 123.924 261.741, 127.356 267.639, 160.803 320.250 L 175.902 344 157.852 344 C 143.156 344, 139.157 344.306, 136.328 345.649 C 133.067 347.196, 130.560 351.884, 95.427 422.146 C 70.714 471.569, 58 498.032, 58 500.047 C 58 501.726, 58.683 504.419, 59.517 506.033 C 62.833 512.445, 48.170 512, 256 512 C 463.830 512, 449.167 512.445, 452.483 506.033 C 453.317 504.419, 454 501.726, 454 500.047 C 454 495.711, 380.040 348.043, 376.846 346 C 375.053 344.854, 370.005 344.382, 355.432 344 L 336.364 343.500 350.707 321 C 383.123 270.147, 388.193 261.457, 396.882 241.849 C 418.383 193.332, 422.623 145.502, 409.023 104.910 C 391.726 53.281, 342.494 12.779, 284.500 2.467 C 271.926 0.231, 245.925 -0.283, 233.757 1.464 M 234.870 25.472 C 216.316 28.506, 199.200 34.571, 184.241 43.411 C 150.222 63.513, 129.500 91.738, 121.374 129.040 C 119.937 135.639, 119.545 141.570, 119.595 156 C 119.649 171.978, 120.016 176.204, 122.286 187 C 126.946 209.172, 135.508 231.709, 147.299 252.842 C 153.821 264.531, 255.138 424.914, 256 424.914 C 256.862 424.914, 358.179 264.531, 364.701 252.842 C 376.501 231.691, 385.068 209.135, 389.706 187 C 391.941 176.333, 392.337 171.860, 392.408 156.500 C 392.498 136.929, 391.231 127.902, 386.346 113.290 C 371.994 70.360, 333.043 37.216, 284.782 26.867 C 272.443 24.221, 246.885 23.506, 234.870 25.472 M 238 93.068 C 190.656 105.430, 166.813 156.936, 188.499 199.999 C 198.241 219.344, 215.981 233.818, 237.060 239.619 C 245.940 242.063, 266.024 242.065, 275 239.623 C 301.308 232.464, 322.191 211.499, 329.122 185.287 C 331.971 174.513, 331.954 158.425, 329.082 147.558 C 323.256 125.512, 309.293 108.634, 288.500 98.505 C 273.046 90.976, 253.904 88.916, 238 93.068 M 242.688 116.502 C 210.313 125.401, 194.773 162.751, 211.277 192 C 217.984 203.888, 232.094 214.066, 245.799 216.903 C 271.682 222.261, 298.117 206.161, 305.569 180.500 C 308 172.129, 307.807 159.353, 305.123 150.928 C 299.774 134.138, 285.960 121.002, 268.869 116.453 C 262.276 114.698, 249.160 114.722, 242.688 116.502 M 119.010 427.980 L 88.997 488 256 488 L 423.003 488 392.990 427.980 L 362.977 367.960 341.772 368.230 L 320.567 368.500 292.944 412 C 264.538 456.733, 262.023 460, 256 460 C 249.941 460, 247.464 456.781, 219.051 412 L 191.451 368.500 170.237 368.230 L 149.023 367.960 119.010 427.980" stroke="none" fill="#000000" fill-rule="evenodd"/>
</svg>