<svg xmlns="http://www.w3.org/2000/svg" width="48" height="48" viewBox="0 0 48 48" version="1.1">
  <rect x="0" y="0" width="100%" height="100%" fill="#FFFFFF" />
	<path d="M 8.571 4.571 C 6.238 6.905, 6.238 41.095, 8.571 43.429 C 10.882 45.739, 37.118 45.739, 39.429 43.429 C 41.762 41.095, 41.762 6.905, 39.429 4.571 C 37.118 2.261, 10.882 2.261, 8.571 4.571 M 9.455 6.258 C 9.178 6.980, 9.074 15.429, 9.225 25.035 L 9.500 42.500 24 42.500 L 38.500 42.500 38.500 24 L 38.500 5.500 24.229 5.222 C 13.171 5.007, 9.845 5.240, 9.455 6.258 M 14 13 C 14 13.600, 18 14, 24 14 C 30 14, 34 13.600, 34 13 C 34 12.400, 30 12, 24 12 C 18 12, 14 12.400, 14 13 M 15 22 C 15 22.556, 17.667 23, 21 23 C 24.333 23, 27 22.556, 27 22 C 27 21.444, 24.333 21, 21 21 C 17.667 21, 15 21.444, 15 22 M 30 22 C 30 22.550, 30.675 23, 31.500 23 C 32.325 23, 33 22.550, 33 22 C 33 21.450, 32.325 21, 31.500 21 C 30.675 21, 30 21.450, 30 22 M 15 29 C 15 29.550, 16.575 30, 18.500 30 C 20.425 30, 22 29.550, 22 29 C 22 28.450, 20.425 28, 18.500 28 C 16.575 28, 15 28.450, 15 29 M 30 29 C 30 29.550, 30.675 30, 31.500 30 C 32.325 30, 33 29.550, 33 29 C 33 28.450, 32.325 28, 31.500 28 C 30.675 28, 30 28.450, 30 29 M 15 36 C 15 36.550, 17.250 37, 20 37 C 22.750 37, 25 36.550, 25 36 C 25 35.450, 22.750 35, 20 35 C 17.250 35, 15 35.450, 15 36 M 30 36 C 30 36.550, 30.675 37, 31.500 37 C 32.325 37, 33 36.550, 33 36 C 33 35.450, 32.325 35, 31.500 35 C 30.675 35, 30 35.450, 30 36" stroke="none" fill="#000000" fill-rule="evenodd"/>
</svg>