<svg xmlns="http://www.w3.org/2000/svg" width="512" height="512" viewBox="0 0 512 512" version="1.1">
	<path d="M 26.117 44.631 C 20.720 48.411, 21 36.856, 21 256 C 21 475.144, 20.720 463.589, 26.117 467.369 C 28.253 468.865, 47.248 469, 256.088 469 C 482.805 469, 483.741 468.992, 486.293 466.984 C 490.114 463.979, 491.454 459.023, 489.628 454.652 C 486.970 448.290, 485.440 448, 454.550 448 L 427 448 427 314.468 C 427 170.541, 427.210 176.362, 421.883 172.631 C 419.837 171.197, 415.252 171, 384 171 C 352.748 171, 348.163 171.197, 346.117 172.631 C 340.790 176.362, 341 170.541, 341 314.468 L 341 448 320 448 L 299 448 299 378.468 C 299 303.712, 299.035 304.239, 293.883 300.631 C 291.837 299.197, 287.252 299, 256 299 C 224.748 299, 220.163 299.197, 218.117 300.631 C 212.965 304.239, 213 303.712, 213 378.468 L 213 448 192 448 L 171 448 171 346.468 C 171 237.140, 171.148 240.318, 165.883 236.631 C 163.837 235.197, 159.252 235, 128 235 C 96.748 235, 92.163 235.197, 90.117 236.631 C 84.852 240.318, 85 237.140, 85 346.468 L 85 448 64 448 L 43 448 43 250.468 C 43 37.309, 43.276 48.408, 37.883 44.631 C 36.603 43.734, 33.955 43, 32 43 C 30.045 43, 27.397 43.734, 26.117 44.631 M 376.715 54.006 C 349.991 58.688, 334.112 88.118, 345.012 112.761 L 347.074 117.422 312.287 152.201 L 277.500 186.979 271 184.308 C 265.641 182.106, 263.007 181.647, 256 181.694 C 245.475 181.764, 238.406 184.244, 229.676 190.927 L 223.500 195.655 196.630 182.264 L 169.759 168.872 170.374 164.186 C 171.842 153.010, 166.629 138.534, 158.048 129.952 C 133.528 105.433, 91.498 119.377, 85.943 153.874 C 82.313 176.410, 98.650 198.317, 121.874 202.057 C 133.364 203.907, 146.880 199.836, 156.485 191.632 L 160.470 188.228 187.355 201.678 L 214.241 215.128 213.626 219.814 C 212.158 230.990, 217.371 245.466, 225.952 254.048 C 235.173 263.268, 249.634 268.069, 262.126 266.057 C 289.868 261.589, 306.143 232.458, 294.988 207.239 L 292.926 202.578 327.752 167.752 L 362.578 132.926 367.239 134.988 C 387.680 144.029, 412.671 134.748, 422.092 114.617 C 434.968 87.101, 417.519 56.375, 387.500 53.702 C 384.200 53.408, 379.347 53.545, 376.715 54.006 M 375.411 76.370 C 371.099 78.322, 365.302 84.556, 363.928 88.717 C 360.908 97.870, 364.592 108.538, 372.661 114 C 375.802 116.127, 377.495 116.500, 384 116.500 C 390.505 116.500, 392.198 116.127, 395.339 114 C 397.371 112.625, 400.263 109.738, 401.766 107.585 C 404.167 104.148, 404.500 102.736, 404.500 96 C 404.500 89.264, 404.167 87.852, 401.766 84.415 C 397.361 78.106, 392.794 75.596, 385.109 75.261 C 380.996 75.081, 377.333 75.500, 375.411 76.370 M 119.411 140.370 C 115.099 142.322, 109.302 148.556, 107.928 152.717 C 104.908 161.870, 108.592 172.538, 116.661 178 C 119.802 180.127, 121.495 180.500, 128 180.500 C 134.505 180.500, 136.198 180.127, 139.339 178 C 141.371 176.625, 144.263 173.738, 145.766 171.585 C 148.167 168.148, 148.500 166.736, 148.500 160 C 148.500 153.264, 148.167 151.852, 145.766 148.415 C 141.361 142.106, 136.794 139.596, 129.109 139.261 C 124.996 139.081, 121.333 139.500, 119.411 140.370 M 363 320 L 363 448 384 448 L 405 448 405 320 L 405 192 384 192 L 363 192 363 320 M 247.411 204.370 C 243.099 206.322, 237.302 212.556, 235.928 216.717 C 232.908 225.870, 236.592 236.538, 244.661 242 C 247.802 244.127, 249.495 244.500, 256 244.500 C 262.505 244.500, 264.198 244.127, 267.339 242 C 269.371 240.625, 272.263 237.738, 273.766 235.585 C 276.167 232.148, 276.500 230.736, 276.500 224 C 276.500 217.264, 276.167 215.852, 273.766 212.415 C 269.361 206.106, 264.794 203.596, 257.109 203.261 C 252.996 203.081, 249.333 203.500, 247.411 204.370 M 107 352 L 107 448 128 448 L 149 448 149 352 L 149 256 128 256 L 107 256 107 352 M 235 384 L 235 448 256 448 L 277 448 277 384 L 277 320 256 320 L 235 320 235 384" stroke="none" fill="#000000" fill-rule="evenodd"/>
</svg>