<svg xmlns="http://www.w3.org/2000/svg" width="512" height="512" viewBox="0 0 512 512" version="1.1">
	<path d="M 245.500 27.344 C 238.512 29.661, 233.452 32.742, 228.677 37.586 C 223.796 42.536, 225.032 40.164, 185.323 120.788 C 173.466 144.860, 168.314 154.345, 166.714 155.047 C 165.496 155.581, 137.950 159.846, 105.500 164.524 C 73.050 169.203, 44.408 173.720, 41.851 174.562 C 18.825 182.148, 8.953 210.455, 22.119 231.146 C 23.744 233.701, 44.858 255.037, 69.037 278.559 C 109.357 317.783, 113 321.598, 113 324.606 C 113 326.410, 108.500 354.124, 103.001 386.193 C 97.501 418.262, 93.001 446.331, 93.001 448.568 C 92.999 458.092, 98.669 469.993, 106.333 476.553 C 115.951 484.786, 129.709 487.971, 141.210 484.627 C 144.296 483.730, 166.955 472.401, 191.563 459.450 C 254.505 426.326, 255.454 425.855, 257.627 426.676 C 258.657 427.065, 282.900 439.697, 311.500 454.748 C 340.100 469.798, 366.073 482.987, 369.218 484.056 C 384.121 489.122, 401.829 483.335, 411.490 470.244 C 415.492 464.821, 419 454.729, 418.999 448.645 C 418.999 446.365, 414.499 418.262, 408.999 386.193 C 403.500 354.124, 399 326.415, 399 324.619 C 399 321.627, 402.710 317.743, 442.945 278.599 C 467.115 255.084, 488.229 233.743, 489.864 231.173 C 503.047 210.456, 493.183 182.133, 470.149 174.567 C 467.592 173.726, 438.950 169.197, 406.500 164.501 C 374.050 159.805, 346.503 155.538, 345.285 155.019 C 343.663 154.328, 338.204 144.207, 324.933 117.287 C 314.958 97.054, 302.554 71.904, 297.369 61.398 C 286.503 39.383, 282.745 34.647, 272.235 29.729 C 266.860 27.214, 264.054 26.562, 257.545 26.319 C 252.720 26.138, 247.899 26.548, 245.500 27.344 M 251.750 59.750 C 250.892 60.712, 237.852 86.475, 222.772 117 C 196.109 170.973, 195.198 172.643, 189.674 177.679 C 186.214 180.834, 181.809 183.676, 178.406 184.949 C 174.668 186.348, 152.835 189.949, 112.451 195.827 C 47.956 205.215, 48 205.205, 48 210.765 C 48 213.635, 46.630 212.226, 99.086 263.323 C 143.708 306.787, 144.131 307.332, 144.764 322 C 145.077 329.275, 143.680 338.914, 135.065 388.892 C 129.529 421.007, 125 447.895, 125 448.642 C 125 450.720, 128.743 454, 131.114 454 C 132.276 454, 156.914 441.540, 185.864 426.311 C 214.814 411.082, 240.750 397.756, 243.500 396.698 C 250.301 394.082, 261.752 394.103, 268.630 396.746 C 271.452 397.830, 297.400 411.156, 326.294 426.358 C 355.187 441.561, 379.766 454, 380.914 454 C 383.262 454, 387 450.709, 387 448.642 C 387 447.895, 382.471 421.007, 376.935 388.892 C 368.320 338.914, 366.923 329.275, 367.236 322 C 367.866 307.381, 368.326 306.789, 412.396 263.844 C 465.599 211.999, 464 213.646, 464 210.691 C 464 205.175, 463.330 205.020, 401.395 196.129 C 369.553 191.558, 341.031 187.141, 338.013 186.312 C 334.995 185.484, 330.646 183.705, 328.349 182.359 C 319.109 176.943, 317.190 173.732, 288.760 116.113 C 273.940 86.076, 261.111 60.712, 260.252 59.750 C 259.393 58.788, 257.480 58, 256 58 C 254.520 58, 252.608 58.788, 251.750 59.750" stroke="none" fill="#000000" fill-rule="evenodd"/>
</svg>