<svg xmlns="http://www.w3.org/2000/svg" width="512" height="512" viewBox="0 0 512 512" version="1.1">
	<path d="M 430.400 3.400 C 427.950 5.850, 427 7.694, 427 10 C 427 14.952, 432.531 20, 437.957 20 L 442.114 20 435.907 25.750 C 432.494 28.913, 424.931 35.480, 419.100 40.344 C 347.866 99.772, 262.747 138.568, 170.939 153.452 C 141.875 158.163, 127.632 159.211, 83.666 159.872 L 41.833 160.500 38.916 163.766 C 35.690 167.379, 35.258 170.665, 37.453 174.909 C 40.171 180.166, 41.382 180.285, 86.247 179.720 C 128.379 179.188, 140.464 178.347, 170 173.890 C 272.387 158.439, 369.375 112.491, 447 42.661 L 456.500 34.114 456.799 38.970 C 457.290 46.937, 462.845 50.944, 470.132 48.589 C 476.228 46.618, 477.129 43.178, 476.792 23.166 L 476.500 5.832 473.234 2.916 L 469.968 0 451.884 0 L 433.800 0 430.400 3.400 M 390.388 122.963 C 389.227 123.441, 387.314 125.057, 386.138 126.552 L 384 129.270 384 290.635 L 384 452 372.012 452 L 360.023 452 359.762 327.413 L 359.500 202.827 356.694 200.413 L 353.888 198 314 198 L 274.112 198 271.306 200.413 L 268.500 202.827 268.238 327.413 L 267.977 452 256.010 452 L 244.043 452 243.771 387.418 L 243.500 322.835 240.198 319.885 L 236.895 316.934 196.860 317.217 L 156.825 317.500 154.413 320.306 L 152 323.112 152 387.556 L 152 452 140 452 L 128 452 128 419.950 C 128 385.178, 127.775 383.586, 122.528 381.195 C 118.389 379.309, 44.835 379.517, 41.145 381.425 C 36.223 383.970, 36 385.645, 36 420.047 L 36 452 22.047 452 C -0.444 452, -0 451.395, -0 482 C 0 506.029, 0.475 508.528, 5.472 510.805 C 9.208 512.507, 502.713 512.544, 506.447 510.842 C 507.845 510.205, 509.891 508.154, 510.994 506.285 C 512.842 503.154, 513 501.110, 513 480.384 C 513 466.801, 512.632 458.109, 512.072 458.456 C 511.562 458.771, 510.855 458.118, 510.501 457.004 C 509.236 453.017, 505.080 452, 490.050 452 L 476 452 476 395.516 L 476 339.032 473.102 335.789 C 470.704 333.105, 469.480 332.545, 466 332.545 C 462.520 332.545, 461.296 333.105, 458.898 335.789 L 456 339.032 456 395.516 L 456 452 430 452 L 404 452 404 297 L 404 142 430 142 L 456 142 456 198.066 C 456 237.389, 456.334 254.784, 457.117 256.316 C 458.808 259.622, 462.177 261.953, 465.300 261.978 C 469.228 262.009, 473.397 259.619, 474.805 256.528 C 475.691 254.584, 476 237.747, 476 191.469 L 476 129.032 473.083 125.766 L 470.166 122.500 431.333 122.296 C 409.975 122.184, 391.550 122.484, 390.388 122.963 M 288 335 L 288 452 314 452 L 340 452 340 335 L 340 218 314 218 L 288 218 288 335 M 462.388 287.942 C 457.226 290.121, 454.686 296.563, 457.117 301.316 C 462.010 310.884, 476 307.376, 476 296.582 C 476 290.965, 467.703 285.699, 462.388 287.942 M 172 394.500 L 172 452 198 452 L 224 452 224 394.500 L 224 337 198 337 L 172 337 172 394.500 M 56 426 L 56 452 82 452 L 108 452 108 426 L 108 400 82 400 L 56 400 56 426 M 0.430 482 C 0.430 494.925, 0.573 500.212, 0.747 493.750 C 0.921 487.288, 0.921 476.712, 0.747 470.250 C 0.573 463.788, 0.430 469.075, 0.430 482 M 20 482 L 20 492 256 492 L 492 492 492 482 L 492 472 256 472 L 20 472 20 482" stroke="none" fill="#000000" fill-rule="evenodd"/>
</svg>