<svg xmlns="http://www.w3.org/2000/svg" width="512" height="512" viewBox="0 0 512 512" version="1.1">
	<path d="M 267.365 12.089 C 262.528 13.491, 254.914 19.041, 251.309 23.794 C 247.079 29.370, 245 36.582, 245 45.682 L 245 53 217.901 53 C 187.593 53, 185.466 53.390, 182.577 59.478 C 180.617 63.610, 180.617 64.390, 182.577 68.522 C 185.846 75.411, 177.621 75, 312.330 75 C 421.476 75, 434.017 75.160, 435.429 76.571 C 436.775 77.918, 437 81.797, 437 103.670 C 437 124.846, 437.269 129.764, 438.577 132.522 C 440.505 136.584, 445.879 139.405, 449.974 138.506 C 453.810 137.663, 457.816 133.512, 458.530 129.638 C 458.849 127.912, 458.747 114.338, 458.305 99.472 C 457.523 73.227, 457.426 72.301, 454.945 67.482 C 453.537 64.745, 450.489 61.068, 448.151 59.285 C 439.885 52.980, 440.128 53, 371.455 53 L 309.273 53 308.782 43.616 C 308.195 32.395, 305.884 26.801, 298.984 19.893 C 291.345 12.247, 278.100 8.978, 267.365 12.089 M 271.763 33.565 C 267.835 35.697, 266 39.958, 266 46.950 L 266 53 277 53 L 288 53 287.994 48.250 C 287.986 40.688, 286.304 36.156, 282.689 33.952 C 278.913 31.649, 275.515 31.529, 271.763 33.565 M 116.332 53.959 C 111.537 55.101, 104.371 59.647, 101.565 63.326 C 95.747 70.954, 96 66.708, 96 156.545 L 96 239.154 98.923 242.077 C 103.001 246.155, 108.674 246.157, 113.234 242.082 L 116.500 239.165 117 158.332 C 117.275 113.875, 117.864 76.938, 118.309 76.250 C 118.899 75.339, 123.311 75, 134.591 75 C 145.702 75, 151.023 74.599, 153.466 73.579 C 156.983 72.109, 160 67.687, 160 64 C 160 60.313, 156.983 55.891, 153.466 54.421 C 149.764 52.874, 122.320 52.533, 116.332 53.959 M 231.500 117.699 C 230.400 117.956, 221.066 126.558, 210.759 136.815 L 192.017 155.463 185.259 148.875 C 176.535 140.371, 174.376 139, 169.701 139 C 163.943 139, 160 143.271, 160 149.507 C 160 154.109, 160.149 154.320, 171.750 166.181 C 184.538 179.256, 186.998 181, 192.651 181 C 196.203 181, 197.602 179.805, 219.275 158.250 C 241.887 135.761, 245 132.100, 245 128 C 245 124.313, 241.983 119.891, 238.466 118.421 C 234.934 116.945, 234.790 116.931, 231.500 117.699 M 272.321 118.613 C 269.404 120.052, 266 125.107, 266 128 C 266 128.659, 266.710 130.693, 267.577 132.522 C 270.693 139.088, 269.842 139, 329.933 139 C 388.072 139, 388.829 138.938, 392.369 133.883 C 393.266 132.603, 394 129.955, 394 128 C 394 126.045, 393.266 123.397, 392.369 122.117 C 388.826 117.058, 388.093 116.998, 329.782 117.023 C 282.538 117.043, 275.088 117.249, 272.321 118.613 M 271.763 161.565 C 265.336 165.052, 264.489 173.709, 270.111 178.440 L 273.153 181 308.854 181 C 348.364 181, 347.813 181.086, 350.562 174.505 C 352.501 169.865, 350.841 164.483, 346.689 161.952 C 343.690 160.123, 341.446 160.010, 309 160.044 C 280.430 160.074, 274.029 160.335, 271.763 161.565 M 445.845 161.485 C 443.834 162.225, 441.120 163.531, 439.812 164.388 C 438.504 165.244, 389.637 214.072, 331.217 272.894 L 225 379.843 225 405.406 L 225 430.968 227.916 434.234 L 230.832 437.500 253.666 437.810 C 266.225 437.980, 278.004 437.839, 279.843 437.497 C 282.629 436.978, 296.962 423.032, 365.816 353.846 L 448.446 270.817 450.723 273.464 C 451.975 274.920, 453 276.836, 453 277.722 C 453 278.608, 442.264 290.170, 429.142 303.416 C 407.524 325.238, 405.118 328.006, 403.516 332.888 C 401.437 339.223, 401.853 347.827, 404.493 353.088 C 406.982 358.048, 421.863 372.811, 425.087 373.519 C 428.965 374.371, 434.587 371.700, 436.434 368.128 C 439.554 362.095, 438.512 359.401, 429.368 349.847 C 425.865 346.188, 423 342.385, 423 341.395 C 423 340.385, 433.260 329.268, 446.395 316.048 C 459.262 303.097, 470.616 290.925, 471.625 289 C 472.932 286.507, 473.459 283.343, 473.457 278 C 473.453 269.946, 471.787 265.465, 466.424 259.092 L 463.752 255.917 480.168 239.208 C 489.399 229.813, 497.420 220.749, 498.494 218.500 C 501.448 212.312, 501.682 202.457, 499.022 196.272 C 495.752 188.671, 470.476 163.995, 463.572 161.664 C 457.733 159.693, 450.906 159.624, 445.845 161.485 M 426.038 207.485 L 399.500 233.971 412.986 247.485 C 420.403 254.918, 426.969 261, 427.577 261 C 428.185 261, 440.276 249.069, 454.446 234.488 C 476.113 212.192, 480.121 207.617, 479.645 205.721 C 478.879 202.668, 456.788 181, 454.442 181 C 453.337 181, 441.764 191.791, 426.038 207.485 M 228.500 225.844 C 226.850 226.916, 217.857 235.487, 208.517 244.891 L 191.533 261.989 184.017 254.547 C 179.882 250.454, 175.263 246.643, 173.750 246.078 C 167.006 243.556, 160 248.758, 160 256.287 C 160 260.266, 160.518 260.939, 173.789 274.211 C 186.345 286.766, 187.898 288, 191.139 288 C 193.497 288, 196.017 287.025, 198.600 285.113 C 205.312 280.146, 242.813 241.652, 244.001 238.510 C 247.582 229.048, 236.946 220.357, 228.500 225.844 M 271.763 225.565 C 265.336 229.052, 264.489 237.709, 270.111 242.440 L 273.153 245 298.442 245 C 322.281 245, 323.877 244.885, 326.293 242.984 C 330.114 239.979, 331.454 235.023, 329.628 230.652 C 327.018 224.405, 325.077 223.995, 298.300 224.040 C 279.201 224.072, 273.959 224.373, 271.763 225.565 M 314.750 319.420 L 246 388.516 246 402.258 L 246 416 259.753 416 L 273.505 416 342.994 346.506 L 412.483 277.011 399.006 263.506 C 391.593 256.078, 385.072 250.073, 384.514 250.162 C 383.956 250.251, 352.563 281.417, 314.750 319.420 M 88 268.984 C 83.875 270.084, 76.675 272.861, 72 275.156 C 65.021 278.582, 61.779 281.048, 53.886 288.931 C 45.564 297.243, 43.659 299.808, 39.713 308.017 C 33.500 320.943, 31.640 330.066, 32.208 344.839 C 32.581 354.521, 33.175 357.987, 35.713 365.261 C 39.182 375.204, 43.519 382.841, 49.728 389.940 C 52.078 392.625, 54 395.038, 54 395.300 C 54 395.563, 52.313 396.089, 50.250 396.470 C 37.999 398.732, 22.313 411.400, 16.160 424 C 11.041 434.481, 9.789 442.775, 10.198 463.500 C 10.538 480.725, 10.668 481.720, 13.227 486.620 C 16.217 492.343, 20.534 496.413, 26.500 499.133 C 30.257 500.845, 35.081 500.957, 106 500.968 L 181.500 500.980 186.500 498.613 C 192.549 495.748, 197.190 491.041, 199.921 485 C 201.745 480.966, 201.958 478.443, 201.978 460.644 C 202.003 438.442, 201.054 432.713, 195.666 422.500 C 189.511 410.836, 175.816 399.959, 163.228 396.738 L 158.181 395.446 162.840 389.791 C 184.182 363.892, 186.814 331.042, 169.855 302.247 C 165.145 294.250, 152.848 282.167, 144.399 277.233 C 132.302 270.168, 123.573 267.764, 108.500 267.345 C 97.852 267.050, 94.143 267.346, 88 268.984 M 270.111 269.560 C 262.690 275.805, 267.384 288.012, 277.200 287.996 C 281.231 287.990, 285.788 284.427, 286.895 280.417 C 289.716 270.202, 278.200 262.753, 270.111 269.560 M 93.782 289.486 C 74.685 294.340, 58.988 310.228, 54.506 329.240 C 47.938 357.095, 64.929 385.238, 93.026 393.046 C 100.025 394.990, 114.399 394.535, 122 392.129 C 138.223 386.994, 152.050 373.178, 157.084 357.072 C 159.885 348.108, 159.884 334.855, 157.079 326 C 151.739 309.137, 140.365 297.168, 124.015 291.205 C 115.717 288.179, 101.991 287.398, 93.782 289.486 M 442.117 396.631 C 437.266 400.028, 437 402.325, 437 440.813 C 437 474.188, 436.874 476.804, 435.187 478.331 C 433.535 479.826, 424.328 479.995, 331.767 480.236 L 230.161 480.500 227.596 482.910 C 222.456 487.739, 223.587 497.124, 229.641 499.882 C 231.398 500.683, 261.233 500.997, 334.797 500.990 L 437.500 500.980 442.500 498.613 C 448.616 495.717, 453.267 490.967, 455.831 485 C 457.584 480.922, 457.827 476.967, 458.426 442.823 C 458.981 411.225, 458.856 404.590, 457.649 401.703 C 455.811 397.303, 452.496 395, 448 395 C 446.045 395, 443.397 395.734, 442.117 396.631 M 54.500 417.370 C 45.998 420.092, 39.257 425.696, 35.173 433.437 C 32.584 438.342, 32.490 439.109, 32.171 457.956 C 31.778 481.176, 31.137 480, 44.191 480 L 53 480 53.015 462.750 C 53.031 443.338, 53.512 441.481, 59.252 438.670 C 62.392 437.133, 63.545 437.025, 66.478 437.993 C 73.457 440.296, 74 442.038, 74 462.135 L 74 480 106 480 L 138 480 138 463.401 C 138 444.432, 138.847 441.250, 144.624 438.508 C 149.074 436.396, 152.882 437.224, 156.609 441.112 L 159.500 444.127 159.831 462.064 L 160.162 480 168.926 480 C 181.565 480, 181.247 480.580, 180.832 458.330 C 180.519 441.544, 180.347 440.173, 177.880 434.914 C 174.690 428.110, 169.652 422.906, 162.717 419.250 L 157.500 416.500 108 416.294 C 70.041 416.137, 57.567 416.388, 54.500 417.370" stroke="none" fill="#000000" fill-rule="evenodd"/>
</svg>