<svg xmlns="http://www.w3.org/2000/svg" width="512" height="512" viewBox="0 0 512 512" version="1.1">
	<path d="M 273.218 1.663 C 268.001 4.235, 265.496 8.575, 265.522 15 C 265.543 20.084, 266.205 21.634, 274.276 35.500 C 279.079 43.750, 284.139 51.705, 285.521 53.178 C 292.559 60.679, 304.614 58.449, 309.647 48.715 C 312.497 43.205, 311.071 38.747, 300.767 20.949 C 292.871 7.310, 290.582 4.118, 287.372 2.266 C 282.807 -0.367, 277.772 -0.582, 273.218 1.663 M 401.500 1.801 C 399.850 2.853, 397.747 4.566, 396.827 5.607 C 393.633 9.221, 378.022 37.368, 377.413 40.610 C 376.075 47.744, 382.095 56.177, 389.522 57.570 C 394.166 58.441, 401.349 55.736, 403.851 52.172 C 404.884 50.702, 409.614 42.701, 414.364 34.391 C 423.576 18.276, 424.410 15.310, 421.613 8.617 C 418.621 1.456, 407.795 -2.212, 401.500 1.801 M 320 79.935 C 309.792 83.052, 299.842 92.891, 297.690 102 C 297.365 103.375, 296.379 109.367, 295.499 115.315 C 288.038 165.737, 251.461 205.691, 179.958 241.521 L 167.264 247.882 166.753 241.515 C 166.200 234.624, 164.098 230.651, 159.276 227.382 C 156.636 225.592, 153.188 225.487, 89 225.227 L 21.500 224.954 17.023 227.227 C 14.362 228.578, 11.725 230.920, 10.523 233 C 8.520 236.465, 8.500 237.823, 8.500 368.500 C 8.500 515.519, 7.947 503.973, 15.235 509.171 L 18.500 511.500 70.382 511.776 C 102.991 511.950, 124.338 511.669, 127.845 511.021 C 139.707 508.828, 153.448 499.652, 159.193 490.087 C 160.378 488.114, 161.452 486.355, 161.579 486.178 C 161.707 486.001, 166.916 487.875, 173.155 490.342 C 202.777 502.056, 234.555 508.559, 274 510.979 C 295.584 512.303, 421.266 512.282, 430.500 510.953 C 454.744 507.463, 472.872 484.579, 470.649 460.269 C 470.335 456.842, 468.896 451.082, 467.450 447.468 L 464.822 440.898 471.231 435.025 C 486.517 421.018, 491.012 400.191, 482.854 381.161 L 480.969 376.763 487.305 370.958 C 499.858 359.455, 505.292 342.997, 501.885 326.799 C 500.531 320.359, 496.732 312.023, 493.285 307.926 L 490.735 304.897 493.911 300.474 C 501.417 290.022, 504.466 278.272, 502.906 265.803 C 500.507 246.627, 484.300 229.556, 465.114 225.999 C 462.045 225.430, 440.672 225, 415.456 225 L 371.185 225 375.981 215.250 C 386.412 194.047, 389.945 179.088, 390.683 153 C 391.301 131.146, 390.279 125.187, 383.770 112.676 C 375.660 97.086, 360.811 85.427, 343.391 80.972 C 335.658 78.994, 324.676 78.508, 320 79.935 M 326.641 111.117 C 326.385 112.428, 325.412 118.225, 324.477 124 C 319.198 156.633, 302.108 187.338, 274.367 214.033 C 252.529 235.048, 224.965 253.069, 183.750 273.279 L 167 281.492 167 368.301 L 167 455.110 172.750 457.671 C 203.075 471.179, 235.278 478.418, 276.500 480.993 C 296.448 482.240, 422.085 482.280, 427.423 481.043 C 432.819 479.791, 436.100 477.166, 438.750 471.980 C 441.482 466.632, 441.562 462.834, 439.057 457.316 C 436.675 452.070, 431.176 448.395, 424.392 447.514 C 408.314 445.428, 403.504 429.088, 416.201 419.683 C 418.478 417.997, 421.067 417.588, 432.712 417.080 C 445.133 416.538, 446.859 416.237, 449.877 414.087 C 453.636 411.411, 456.956 405.039, 456.956 400.500 C 456.956 396.779, 453.973 390.114, 451.207 387.655 C 447.525 384.381, 441.909 383.090, 431.151 383.044 C 419.090 382.993, 415.158 381.610, 411.849 376.256 C 407.229 368.781, 409.999 359.298, 417.985 355.250 C 422.121 353.154, 423.708 353, 441.252 353 C 458.007 353, 460.505 352.783, 463.939 351.031 C 476.203 344.774, 475.388 326.714, 462.579 320.896 C 459.077 319.306, 455.834 319.041, 439.636 319.022 C 422.365 319.002, 420.458 318.823, 417.046 316.906 C 409.912 312.896, 407.524 305.189, 411.206 298.059 C 415.487 289.770, 416.150 289.568, 441 289 C 465.247 288.445, 465.789 288.300, 470.750 281.010 C 474.207 275.931, 473.917 267.566, 470.102 262.299 C 464.586 254.684, 468.315 255, 383.866 255 L 308.772 255 304.886 252.816 C 297.483 248.655, 294.987 238.512, 299.786 232.085 C 304.274 226.073, 306.006 225.525, 321.630 225.175 L 336.120 224.850 339.565 219.466 C 344.953 211.043, 352.720 194.919, 355.518 186.349 C 361.243 168.809, 362.938 141.254, 358.946 130.586 C 354.846 119.626, 343.611 110.689, 332.242 109.342 C 327.409 108.770, 327.077 108.875, 326.641 111.117 M 209.218 112.663 C 203.961 115.254, 201.500 119.563, 201.500 126.177 C 201.500 132.770, 203.651 136.485, 209.071 139.248 C 211.988 140.736, 215.412 140.997, 232.016 140.998 C 254.729 141, 256.947 140.380, 260.750 132.964 C 263.535 127.533, 263.573 124.815, 260.940 119.376 C 259.444 116.286, 257.714 114.556, 254.624 113.060 C 250.780 111.199, 248.536 111.002, 231.434 111.023 C 216.045 111.041, 211.886 111.348, 209.218 112.663 M 434.500 112.412 C 429.189 114.772, 425 120.874, 425 126.249 C 425 130.374, 428.887 136.568, 432.886 138.816 C 436.510 140.853, 438.080 141, 456.136 140.998 C 472.576 140.997, 476.026 140.733, 478.980 139.248 C 489.694 133.866, 489.714 118.537, 479.016 112.852 C 475.968 111.232, 473.150 111.005, 456.516 111.039 C 442.910 111.067, 436.647 111.458, 434.500 112.412 M 39 368.515 L 39 482.048 55.750 481.774 L 72.500 481.500 73 453.829 L 73.500 426.157 76 423.484 C 83.321 415.654, 94.920 416.311, 100.234 424.856 C 102.418 428.368, 102.511 429.468, 102.810 455.250 L 103.119 482 111.810 481.994 C 116.589 481.991, 122.279 481.495, 124.453 480.891 C 129.563 479.473, 134.531 474.456, 135.915 469.316 C 136.682 466.466, 136.933 433.924, 136.755 360.376 L 136.500 255.500 87.750 255.240 L 39 254.981 39 368.515" stroke="none" fill="#000000" fill-rule="evenodd"/>
</svg>