<svg xmlns="http://www.w3.org/2000/svg" width="512" height="512" viewBox="0 0 512 512" version="1.1">
	<path d="M 112.763 29.565 C 106.567 32.927, 107 15.908, 107 256 C 107 449.886, 107.175 475.437, 108.517 478.033 C 111.825 484.430, 101.926 484.047, 256.451 483.760 L 396.962 483.500 400.231 480.231 L 403.500 476.962 403.759 323.143 L 404.019 169.324 401.727 165.912 C 398.468 161.060, 392.813 159.197, 387.772 161.314 C 385.676 162.194, 383.160 164.329, 382.026 166.190 C 380.026 169.470, 380.007 170.828, 380.004 314.750 L 380 460 255.500 460 L 131 460 131 264.396 L 131 68.793 134.685 72.028 C 139.953 76.653, 145.642 78.953, 151.884 78.978 C 163.170 79.024, 170.244 74.476, 178.948 61.578 C 185.081 52.488, 186.445 51.295, 188.630 53.108 C 189.526 53.852, 192.029 57.262, 194.192 60.687 C 199.075 68.418, 207.880 76.595, 212.792 77.959 C 218.624 79.579, 227.033 79.177, 231.500 77.065 C 237.577 74.192, 240.495 71.323, 247.316 61.507 C 250.753 56.561, 254.272 52.379, 255.136 52.212 C 256.143 52.018, 258.284 54.348, 261.103 58.705 C 270.698 73.534, 278.325 78.980, 289.500 78.980 C 296.704 78.980, 303.973 75.898, 308.616 70.872 C 310.330 69.018, 314.075 63.986, 316.937 59.690 C 320.381 54.522, 322.687 51.986, 323.754 52.191 C 324.641 52.362, 327.794 56.101, 330.761 60.501 C 337.736 70.844, 340.304 73.474, 346.390 76.507 C 355.811 81.202, 366.963 79.536, 375.102 72.219 L 380 67.815 380 87.759 C 380 106.868, 380.096 107.847, 382.283 111.102 C 385.532 115.939, 391.193 117.800, 396.228 115.686 C 398.308 114.812, 400.857 112.657, 401.995 110.810 C 403.961 107.617, 404.023 106.224, 403.766 71.268 L 403.500 35.036 400.228 31.768 C 397.217 28.760, 396.461 28.504, 390.728 28.554 C 380.846 28.639, 372.878 34.184, 365.461 46.136 C 362.010 51.697, 358.999 55, 357.381 55 C 356.682 55, 353.324 50.932, 349.918 45.960 C 342.899 35.712, 338.587 31.729, 332.128 29.528 C 318.791 24.984, 307.611 30.245, 297.127 46 C 293.214 51.882, 290.864 54.500, 289.499 54.500 C 288.180 54.500, 285.939 52.181, 282.735 47.500 C 272.399 32.400, 266.761 28.542, 255 28.516 C 248.627 28.502, 246.807 28.908, 242.887 31.212 C 237.411 34.431, 233.348 38.876, 227.400 48.157 C 224.519 52.651, 222.365 55, 221.124 55 C 219.890 55, 217.721 52.660, 214.868 48.250 C 209.100 39.335, 203.506 33.317, 198.545 30.689 C 192.844 27.669, 181.156 27.669, 175.455 30.689 C 170.843 33.132, 164.433 39.736, 160.461 46.136 C 157.010 51.697, 153.999 55, 152.381 55 C 151.682 55, 148.324 50.932, 144.918 45.960 C 141.513 40.988, 137.126 35.601, 135.170 33.988 C 128.530 28.515, 118.388 26.513, 112.763 29.565 M 164 99.652 C 157.604 101.759, 155 105.346, 155 112.050 C 155 115.436, 155.626 116.826, 158.400 119.600 L 161.800 123 227.500 123 L 293.200 123 296.600 119.600 C 299.451 116.749, 300 115.480, 300 111.735 C 300 108.669, 299.321 106.406, 297.832 104.514 C 293.434 98.923, 294.348 98.993, 227.282 99.079 C 193.302 99.122, 164.825 99.380, 164 99.652 M 327.258 99.647 C 324.019 100.355, 319.308 105.446, 318.821 108.765 C 318.161 113.263, 319.753 117.614, 323.084 120.417 C 325.888 122.777, 326.934 123, 335.177 123 C 344.105 123, 344.236 122.964, 347.600 119.600 C 350.348 116.852, 351 115.423, 351 112.147 C 351 103.252, 347.079 99.801, 336.535 99.414 C 332.666 99.273, 328.491 99.377, 327.258 99.647 M 188.500 161.364 C 179.383 164.327, 173.560 169.356, 169.890 177.435 C 168.164 181.237, 168.043 185.257, 168.032 239.500 L 168.020 297.500 170.353 302.500 C 171.636 305.250, 174.606 309.231, 176.954 311.347 C 184.882 318.495, 184.912 318.500, 219 318.500 L 249.500 318.500 254.638 315.790 C 260.897 312.488, 266.362 306.320, 268.446 300.205 C 270.775 293.369, 270.775 185.631, 268.446 178.795 C 266.270 172.410, 260.943 166.610, 254.224 163.311 L 248.500 160.500 220.500 160.282 C 199.731 160.120, 191.467 160.399, 188.500 161.364 M 323.089 160.727 C 319.590 161.386, 289.564 191.203, 286.939 196.625 C 284.364 201.946, 284.972 205.818, 289.020 209.866 C 294.803 215.649, 301.244 214.598, 308.958 206.614 C 311.410 204.076, 313.773 202, 314.208 202 C 314.644 202, 315 222.925, 315 248.500 L 315 295 306.077 295 C 297.949 295, 296.881 295.230, 294.095 297.574 C 292.413 298.989, 290.520 301.870, 289.889 303.976 C 288.914 307.232, 289.023 308.380, 290.621 311.652 C 294.040 318.654, 295.727 318.997, 326.800 318.998 C 357.001 319, 358.347 318.760, 362.040 312.701 C 364.389 308.849, 364.508 305.873, 362.484 301.607 C 360.099 296.581, 356.424 295, 347.124 295 L 339.057 295 338.779 231.750 C 338.468 161.234, 338.863 165.061, 331.540 161.586 C 328.160 159.982, 327.433 159.908, 323.089 160.727 M 193.200 185.200 C 191.469 186.931, 191.469 292.069, 193.200 293.800 C 194.906 295.506, 243.094 295.506, 244.800 293.800 C 245.703 292.897, 246 279.430, 246 239.335 C 246 187.697, 245.941 186.039, 244.066 185.035 C 241.187 183.494, 194.755 183.645, 193.200 185.200 M 161.388 356.971 C 154.669 359.714, 152.670 370.295, 157.829 375.817 C 159.434 377.535, 162.138 379.113, 164.079 379.463 C 165.961 379.803, 204.255 379.950, 249.177 379.790 C 330.305 379.502, 330.873 379.486, 333.677 377.404 C 339.638 372.979, 339.979 364.148, 334.391 358.897 L 331.839 356.500 247.670 356.305 C 201.376 356.197, 162.550 356.497, 161.388 356.971 M 160.314 399.937 C 156.215 402.453, 155 404.823, 155 410.299 C 155 415.356, 157.368 419.082, 161.731 420.889 C 163.770 421.733, 180.322 421.973, 222.746 421.774 L 280.963 421.500 284.231 418.231 C 287.044 415.417, 287.500 414.270, 287.500 410 C 287.500 405.730, 287.044 404.583, 284.231 401.769 L 280.963 398.500 222.231 398.240 C 165.450 397.990, 163.394 398.046, 160.314 399.937" stroke="none" fill="#000000" fill-rule="evenodd"/>
</svg>