<svg xmlns="http://www.w3.org/2000/svg" width="512" height="512" viewBox="0 0 512 512" version="1.1">
	<path d="M 245.322 42.032 C 228.659 45.027, 212.771 55.214, 203.702 68.717 C 198.208 76.898, 27.777 375.203, 25.545 380.547 C 20.725 392.082, 19.462 409.257, 22.554 421.231 C 26.983 438.386, 39.819 454.387, 55.186 461.910 C 70.820 469.564, 54.818 469, 256.500 469 C 456.455 469, 442.070 469.459, 456.500 462.619 C 485.632 448.809, 499.763 414.134, 488.667 383.688 C 486.288 377.160, 314.765 77.867, 307.410 67.409 C 299.908 56.742, 289.260 49.004, 276.105 44.656 C 266.987 41.642, 253.762 40.515, 245.322 42.032 M 244.500 86.932 C 241.750 88.534, 238.531 91.342, 237.346 93.172 C 234.402 97.721, 67.863 389.372, 65.001 394.990 C 59.268 406.246, 64.322 419.577, 76.297 424.784 C 78.458 425.724, 119.286 426, 255.925 426 C 450.540 426, 436.378 426.468, 443.034 419.812 C 449.440 413.406, 450.708 405.161, 446.620 396.500 C 442.074 386.868, 272.831 93.471, 270.179 90.624 C 263.593 83.553, 252.930 82.020, 244.500 86.932 M 246 173.250 C 243.525 174.572, 240.150 177.570, 238.500 179.912 L 235.500 184.170 235.195 232.335 C 234.990 264.787, 235.243 281.709, 235.972 284.205 C 239.473 296.200, 254.751 302.197, 265.956 295.974 C 268.406 294.613, 271.781 291.549, 273.456 289.165 L 276.500 284.830 276.777 235.623 L 277.054 186.416 274.700 181.958 C 271.100 175.140, 265.408 171.640, 257.207 171.203 C 251.607 170.905, 249.757 171.243, 246 173.250 M 251.340 341.915 C 234.719 346.101, 229.366 366.967, 241.988 378.370 C 255.526 390.601, 276.894 381.043, 276.978 362.718 C 277.003 357.306, 274.953 351.651, 271.702 348.166 C 266.933 343.053, 257.869 340.270, 251.340 341.915" stroke="none" fill="#000000" fill-rule="evenodd"/>
</svg>